<svg width="760" height="440" viewBox="0 0 760 440" xmlns="http://www.w3.org/2000/svg">
  <rect width="760" height="440" fill="#ffffff"/>
  <text x="380" y="36" text-anchor="middle" font-size="22" font-weight="700" fill="#111827">Codex Harness 平台化结构</text>

  <rect x="265" y="80" width="230" height="65" rx="16" fill="#111827"/>
  <text x="380" y="108" text-anchor="middle" font-size="17" font-weight="700" fill="#ffffff">Codex App Server</text>
  <text x="380" y="130" text-anchor="middle" font-size="12" fill="#D1D5DB">JSON-RPC · Event Stream · Thread Manager</text>

  <rect x="60" y="215" width="140" height="60" rx="14" fill="#EEF2FF" stroke="#111827"/>
  <text x="130" y="242" text-anchor="middle" font-size="14" font-weight="700">CLI</text>
  <text x="130" y="262" text-anchor="middle" font-size="12" fill="#4B5563">命令行入口</text>

  <rect x="230" y="215" width="140" height="60" rx="14" fill="#ECFDF5" stroke="#111827"/>
  <text x="300" y="242" text-anchor="middle" font-size="14" font-weight="700">IDE</text>
  <text x="300" y="262" text-anchor="middle" font-size="12" fill="#4B5563">编辑器入口</text>

  <rect x="400" y="215" width="140" height="60" rx="14" fill="#F3F4F6" stroke="#111827"/>
  <text x="470" y="242" text-anchor="middle" font-size="14" font-weight="700">Web / App</text>
  <text x="470" y="262" text-anchor="middle" font-size="12" fill="#4B5563">图形界面</text>

  <rect x="570" y="215" width="140" height="60" rx="14" fill="#FEF3C7" stroke="#111827"/>
  <text x="640" y="242" text-anchor="middle" font-size="14" font-weight="700">Automation</text>
  <text x="640" y="262" text-anchor="middle" font-size="12" fill="#4B5563">后台任务</text>

  <line x1="380" y1="145" x2="130" y2="215" stroke="#111827" stroke-width="2"/>
  <line x1="380" y1="145" x2="300" y2="215" stroke="#111827" stroke-width="2"/>
  <line x1="380" y1="145" x2="470" y2="215" stroke="#111827" stroke-width="2"/>
  <line x1="380" y1="145" x2="640" y2="215" stroke="#111827" stroke-width="2"/>

  <rect x="120" y="340" width="520" height="60" rx="16" fill="#F9FAFB" stroke="#111827"/>
  <text x="380" y="366" text-anchor="middle" font-size="15" font-weight="700">Codex Core</text>
  <text x="380" y="388" text-anchor="middle" font-size="12" fill="#4B5563">Agent Loop · Tool Execution · Thread Persistence · Sandbox Policy · Skills · MCP</text>

  <line x1="380" y1="145" x2="380" y2="340" stroke="#111827" stroke-width="2" stroke-dasharray="6 6"/>
</svg>
