<svg width="760" height="460" viewBox="0 0 760 460" xmlns="http://www.w3.org/2000/svg">
  <rect width="760" height="460" fill="#ffffff"/>
  <text x="380" y="38" text-anchor="middle" font-size="22" font-weight="700" fill="#111827">Harness Engineering：把 AI 工作变成闭环</text>

  <circle cx="380" cy="235" r="135" fill="#F9FAFB" stroke="#111827" stroke-width="1.8"/>
  <text x="380" y="232" text-anchor="middle" font-size="20" font-weight="700" fill="#111827">AI Coding</text>
  <text x="380" y="260" text-anchor="middle" font-size="13" fill="#4B5563">不是一次性生成</text>
  <text x="380" y="280" text-anchor="middle" font-size="13" fill="#4B5563">而是持续工程循环</text>

  <rect x="315" y="70" width="130" height="45" rx="12" fill="#EEF2FF" stroke="#111827"/>
  <text x="380" y="98" text-anchor="middle" font-size="14" font-weight="700">计划</text>

  <rect x="535" y="145" width="130" height="45" rx="12" fill="#ECFDF5" stroke="#111827"/>
  <text x="600" y="173" text-anchor="middle" font-size="14" font-weight="700">执行</text>

  <rect x="535" y="285" width="130" height="45" rx="12" fill="#F3F4F6" stroke="#111827"/>
  <text x="600" y="313" text-anchor="middle" font-size="14" font-weight="700">验证</text>

  <rect x="315" y="355" width="130" height="45" rx="12" fill="#FEF3C7" stroke="#111827"/>
  <text x="380" y="383" text-anchor="middle" font-size="14" font-weight="700">修复</text>

  <rect x="95" y="285" width="130" height="45" rx="12" fill="#FEE2E2" stroke="#111827"/>
  <text x="160" y="313" text-anchor="middle" font-size="14" font-weight="700">复盘</text>

  <rect x="95" y="145" width="130" height="45" rx="12" fill="#E0F2FE" stroke="#111827"/>
  <text x="160" y="173" text-anchor="middle" font-size="14" font-weight="700">回归</text>

  <path d="M445 95 C535 110 585 125 600 145" fill="none" stroke="#111827" stroke-width="2" marker-end="url(#arrow)"/>
  <path d="M620 190 C650 230 650 265 620 285" fill="none" stroke="#111827" stroke-width="2" marker-end="url(#arrow)"/>
  <path d="M535 322 C495 355 455 370 445 375" fill="none" stroke="#111827" stroke-width="2" marker-end="url(#arrow)"/>
  <path d="M315 375 C260 365 220 345 200 330" fill="none" stroke="#111827" stroke-width="2" marker-end="url(#arrow)"/>
  <path d="M145 285 C115 240 120 205 145 190" fill="none" stroke="#111827" stroke-width="2" marker-end="url(#arrow)"/>
  <path d="M225 165 C260 125 300 105 315 95" fill="none" stroke="#111827" stroke-width="2" marker-end="url(#arrow)"/>

  <text x="380" y="430" text-anchor="middle" font-size="14" fill="#374151">规则进入流程，流程产生证据，证据驱动下一轮改进</text>

  <defs>
    <marker id="arrow" markerWidth="10" markerHeight="10" refX="8" refY="3" orient="auto">
      <path d="M0,0 L0,6 L9,3 z" fill="#111827"/>
    </marker>
  </defs>
</svg>
