<svg width="760" height="520" viewBox="0 0 760 520" xmlns="http://www.w3.org/2000/svg">
  <rect width="760" height="520" fill="#ffffff"/>
  <text x="380" y="36" text-anchor="middle" font-size="22" font-weight="700" fill="#111827">OpenAI Harness 演进线</text>

  <line x1="380" y1="70" x2="380" y2="460" stroke="#111827" stroke-width="2"/>

  <g font-size="13" fill="#111827">
    <circle cx="380" cy="90" r="8" fill="#2563EB"/>
    <rect x="420" y="70" width="250" height="45" rx="10" fill="#EEF2FF" stroke="#111827"/>
    <text x="545" y="98" text-anchor="middle" font-weight="700">Codex Agent Loop</text>

    <circle cx="380" cy="150" r="8" fill="#2563EB"/>
    <rect x="90" y="130" width="250" height="45" rx="10" fill="#F9FAFB" stroke="#111827"/>
    <text x="215" y="158" text-anchor="middle" font-weight="700">Codex App Server</text>

    <circle cx="380" cy="210" r="8" fill="#2563EB"/>
    <rect x="420" y="190" width="250" height="45" rx="10" fill="#ECFDF5" stroke="#111827"/>
    <text x="545" y="218" text-anchor="middle" font-weight="700">Agent-first Codebase</text>

    <circle cx="380" cy="270" r="8" fill="#2563EB"/>
    <rect x="90" y="250" width="250" height="45" rx="10" fill="#F3F4F6" stroke="#111827"/>
    <text x="215" y="278" text-anchor="middle" font-weight="700">Long-horizon Codex</text>

    <circle cx="380" cy="330" r="8" fill="#2563EB"/>
    <rect x="420" y="310" width="250" height="45" rx="10" fill="#FEF3C7" stroke="#111827"/>
    <text x="545" y="338" text-anchor="middle" font-weight="700">Symphony Orchestration</text>

    <circle cx="380" cy="390" r="8" fill="#2563EB"/>
    <rect x="90" y="370" width="250" height="45" rx="10" fill="#E0F2FE" stroke="#111827"/>
    <text x="215" y="398" text-anchor="middle" font-weight="700">Self-improving Agents</text>

    <circle cx="380" cy="450" r="8" fill="#2563EB"/>
    <rect x="420" y="430" width="250" height="45" rx="10" fill="#FEE2E2" stroke="#111827"/>
    <text x="545" y="458" text-anchor="middle" font-weight="700">Sandbox / Safety Boundary</text>
  </g>

  <text x="380" y="500" text-anchor="middle" font-size="13" fill="#4B5563">从 coding agent 到可嵌入、可编排、可长期运行、可安全约束的开发平台</text>
</svg>
