<svg width="760" height="500" viewBox="0 0 760 500" xmlns="http://www.w3.org/2000/svg">
  <rect width="760" height="500" fill="#ffffff"/>
  <text x="380" y="36" text-anchor="middle" font-size="22" font-weight="700" fill="#111827">轻量级 AI Coding Harness</text>

  <rect x="80" y="80" width="600" height="70" rx="16" fill="#EEF2FF" stroke="#111827"/>
  <text x="380" y="110" text-anchor="middle" font-size="16" font-weight="700">任务入口</text>
  <text x="380" y="134" text-anchor="middle" font-size="13" fill="#374151">spec.md · acceptance criteria · 改动边界</text>

  <rect x="80" y="175" width="600" height="70" rx="16" fill="#ECFDF5" stroke="#111827"/>
  <text x="380" y="205" text-anchor="middle" font-size="16" font-weight="700">上下文供应</text>
  <text x="380" y="229" text-anchor="middle" font-size="13" fill="#374151">docs · architecture · conventions · progress file · skills index</text>

  <rect x="80" y="270" width="600" height="70" rx="16" fill="#F3F4F6" stroke="#111827"/>
  <text x="380" y="300" text-anchor="middle" font-size="16" font-weight="700">执行与验证</text>
  <text x="380" y="324" text-anchor="middle" font-size="13" fill="#374151">diff · test · build · logs · review checklist · CI</text>

  <rect x="80" y="365" width="600" height="70" rx="16" fill="#FEF3C7" stroke="#111827"/>
  <text x="380" y="395" text-anchor="middle" font-size="16" font-weight="700">反馈与回归</text>
  <text x="380" y="419" text-anchor="middle" font-size="13" fill="#374151">incident review · regression cases · checklist update · next batch</text>

  <line x1="380" y1="150" x2="380" y2="175" stroke="#111827" stroke-width="2" marker-end="url(#arrow)"/>
  <line x1="380" y1="245" x2="380" y2="270" stroke="#111827" stroke-width="2" marker-end="url(#arrow)"/>
  <line x1="380" y1="340" x2="380" y2="365" stroke="#111827" stroke-width="2" marker-end="url(#arrow)"/>

  <defs>
    <marker id="arrow" markerWidth="10" markerHeight="10" refX="8" refY="3" orient="auto">
      <path d="M0,0 L0,6 L9,3 z" fill="#111827"/>
    </marker>
  </defs>
</svg>
